<?xml version="1.0" standalone="no"?>
<!DOCTYPE svg PUBLIC "-//W3C//DTD SVG 20010904//EN"
 "http://www.w3.org/TR/2001/REC-SVG-20010904/DTD/svg10.dtd">
<svg version="1.0" xmlns="http://www.w3.org/2000/svg"
 width="200.000000pt" height="200.000000pt" viewBox="0 0 200.000000 200.000000"
 preserveAspectRatio="xMidYMid meet">
<metadata>
Created by potrace 1.14, written by Peter Selinger 2001-2017
</metadata>
<g transform="translate(0.000000,200.000000) scale(0.100000,-0.100000)"
fill="#000000" stroke="none">
<path d="M0 1956 c0 -44 0 -44 43 -54 23 -5 51 -13 61 -18 16 -6 18 -4 12 12
-5 10 -13 38 -18 62 -10 42 -10 42 -54 42 l-44 0 0 -44z"/>
<path d="M116 1963 c5 -33 49 -123 59 -123 11 0 46 74 54 114 l8 46 -64 0 -64
0 7 -37z"/>
<path d="M250 1975 c0 -14 -7 -42 -15 -61 -14 -34 -14 -36 3 -29 72 27 142 27
215 -1 13 -5 14 -1 2 33 -8 21 -14 48 -15 61 0 21 -3 22 -95 22 -95 0 -95 0
-95 -25z"/>
<path d="M464 1958 c8 -48 43 -111 59 -105 16 5 47 70 54 111 l6 36 -63 0 -63
0 7 -42z"/>
<path d="M596 1959 c-19 -121 -124 -209 -249 -209 -32 0 -73 6 -91 14 l-34 14
15 -36 c10 -24 14 -58 11 -103 -6 -116 -81 -204 -195 -231 l-53 -13 0 -396 0
-396 51 -11 c147 -34 234 -186 186 -325 l-15 -45 36 15 c24 10 58 14 103 11
116 -6 204 -81 231 -196 l13 -52 396 0 396 0 11 51 c34 147 186 234 325 186
l45 -15 -15 45 c-48 139 38 292 183 324 l54 12 0 397 0 397 -41 7 c-121 19
-209 124 -209 249 0 32 6 73 14 91 l14 34 -45 -15 c-139 -48 -292 38 -324 183
l-12 54 -397 0 -397 0 -7 -41z m511 -382 c91 -47 143 -131 143 -230 0 -32 -6
-73 -14 -91 l-14 -34 45 15 c139 48 292 -38 324 -183 42 -187 -142 -353 -324
-291 l-45 15 15 -45 c48 -139 -38 -292 -183 -324 -188 -42 -353 142 -291 324
l15 45 -34 -14 c-55 -23 -142 -18 -202 12 -188 94 -187 362 3 450 58 28 147
32 199 10 l34 -14 -14 34 c-8 18 -14 60 -14 92 0 104 67 200 165 237 49 18
149 14 192 -8z"/>
<path d="M924 1567 c-17 -6 -42 -20 -55 -29 l-24 -17 25 -20 c37 -29 103 -45
161 -38 53 7 122 42 116 60 -13 40 -160 69 -223 44z"/>
<path d="M812 1487 c-47 -56 -56 -178 -19 -248 13 -24 28 -44 33 -43 16 2 53
77 60 121 12 79 -44 207 -74 170z"/>
<path d="M1152 1475 c-27 -34 -45 -115 -37 -162 7 -43 45 -116 60 -116 5 0 20
20 32 44 29 56 30 147 4 205 -25 54 -35 59 -59 29z"/>
<path d="M884 1453 c28 -73 28 -143 1 -215 -7 -17 -5 -17 29 -3 45 19 127 19
172 0 34 -14 36 -14 29 3 -27 72 -27 142 1 215 5 13 1 14 -33 2 -21 -8 -58
-14 -83 -14 -25 0 -62 6 -83 14 -34 12 -38 11 -33 -2z"/>
<path d="M955 1231 c-16 -4 -50 -18 -74 -30 l-45 -23 25 -19 c13 -11 48 -26
77 -35 64 -19 120 -12 181 23 l44 26 -24 18 c-43 33 -132 52 -184 40z"/>
<path d="M1296 1229 c-22 -5 -54 -19 -73 -30 -32 -20 -33 -22 -17 -40 26 -29
110 -52 166 -46 53 7 130 44 125 61 -6 18 -79 53 -122 59 -22 2 -58 1 -79 -4z"/>
<path d="M561 1214 c-19 -8 -41 -20 -48 -26 -37 -30 91 -86 170 -74 46 7 120
45 120 61 0 5 -20 20 -44 32 -52 27 -146 30 -198 7z"/>
<path d="M801 1126 c-27 -43 -42 -122 -32 -167 4 -19 18 -54 31 -78 l22 -45
19 25 c30 38 52 123 44 172 -6 36 -48 127 -60 127 -2 0 -13 -15 -24 -34z"/>
<path d="M1150 1128 c-29 -48 -43 -107 -36 -157 6 -45 44 -123 60 -125 6 -1
21 20 34 46 34 67 34 146 -2 216 -14 28 -29 52 -31 52 -3 0 -14 -15 -25 -32z"/>
<path d="M458 1128 c-26 -40 -40 -99 -36 -148 5 -54 38 -125 58 -125 7 0 22
18 34 40 31 58 30 166 -2 218 -27 43 -34 45 -54 15z"/>
<path d="M1502 1137 c-24 -29 -42 -88 -42 -140 0 -59 35 -142 60 -142 26 0 60
83 60 145 0 38 -7 70 -22 100 -25 48 -39 58 -56 37z"/>
<path d="M1220 1126 c0 -2 7 -20 15 -39 8 -20 15 -59 15 -87 0 -28 -7 -67 -15
-87 -19 -45 -19 -46 5 -33 50 27 149 29 211 5 15 -5 15 -1 0 55 -14 54 -14 66
0 120 9 33 14 60 13 60 -1 0 -15 -5 -30 -11 -41 -15 -136 -13 -177 5 -21 8
-37 14 -37 12z"/>
<path d="M545 1083 c18 -49 18 -117 0 -166 -12 -34 -11 -38 2 -33 73 28 143
28 215 1 17 -7 17 -5 3 29 -19 45 -19 127 0 172 14 34 14 36 -3 29 -72 -27
-142 -27 -215 1 -13 5 -14 1 -2 -33z"/>
<path d="M884 1104 c5 -10 13 -38 18 -61 9 -41 2 -99 -18 -147 -6 -16 -4 -18
12 -12 62 24 146 24 208 0 16 -6 18 -4 12 12 -24 62 -24 146 0 208 6 16 4 18
-12 12 -48 -20 -106 -27 -146 -18 -24 5 -52 13 -62 18 -16 6 -18 4 -12 -12z"/>
<path d="M582 876 c-49 -16 -85 -44 -76 -58 15 -23 92 -48 150 -48 61 0 145
31 147 55 2 18 -80 56 -130 60 -27 3 -67 -1 -91 -9z"/>
<path d="M928 876 c-21 -7 -50 -21 -65 -31 -26 -17 -26 -18 -7 -32 68 -53 171
-61 252 -19 29 15 50 31 47 36 -13 21 -90 52 -139 56 -30 3 -67 -1 -88 -10z"/>
<path d="M1274 879 c-17 -6 -44 -21 -60 -34 l-28 -23 34 -20 c46 -28 116 -42
166 -33 45 8 105 39 111 57 2 5 -15 20 -37 33 -47 26 -138 36 -186 20z"/>
<path d="M802 780 c-44 -72 -47 -171 -6 -241 27 -45 37 -45 62 0 44 77 38 183
-13 247 l-23 28 -20 -34z"/>
<path d="M1157 792 c-30 -33 -50 -109 -44 -163 7 -54 44 -131 61 -126 6 2 22
23 35 46 39 70 29 179 -21 244 -13 18 -14 18 -31 -1z"/>
<path d="M886 743 c18 -41 20 -136 5 -177 -6 -15 -11 -29 -11 -30 0 -1 27 4
60 13 54 14 66 14 120 0 33 -9 60 -14 60 -13 0 1 -5 15 -11 30 -15 41 -13 136
5 177 8 21 14 37 12 37 -2 0 -20 -7 -39 -15 -20 -8 -59 -15 -87 -15 -28 0 -67
7 -87 15 -19 8 -37 15 -39 15 -2 0 4 -16 12 -37z"/>
<path d="M900 518 c-25 -13 -45 -30 -45 -38 0 -26 83 -60 145 -60 62 0 145 34
145 60 0 26 -83 60 -145 60 -38 0 -70 -7 -100 -22z"/>
<path d="M1420 1972 c0 -37 41 -117 60 -117 19 0 60 80 60 117 0 28 -1 28 -60
28 -59 0 -60 0 -60 -28z"/>
<path d="M1549 1940 c-9 -33 -14 -60 -13 -60 1 0 15 5 30 11 41 15 136 13 177
-5 21 -8 37 -14 37 -12 0 2 -7 20 -15 39 -8 20 -15 48 -15 62 0 25 0 25 -93
25 l-92 0 -16 -60z"/>
<path d="M1767 1968 c9 -47 52 -130 63 -123 16 10 48 78 55 118 l7 37 -66 0
-65 0 6 -32z"/>
<path d="M1906 1988 c-3 -7 -7 -26 -9 -43 -3 -16 -9 -39 -13 -49 -6 -16 -4
-18 12 -12 10 5 38 13 62 18 42 10 42 10 42 54 l0 44 -45 0 c-28 0 -47 -5 -49
-12z"/>
<path d="M0 1825 l0 -64 33 6 c17 3 54 17 81 31 l50 24 -25 19 c-21 17 -108
49 -131 49 -4 0 -8 -29 -8 -65z"/>
<path d="M278 1876 c-49 -18 -90 -45 -83 -55 2 -5 25 -18 50 -30 73 -34 188
-24 242 21 21 17 -11 45 -70 63 -61 18 -90 18 -139 1z"/>
<path d="M1588 1880 c-40 -12 -89 -43 -85 -55 6 -17 67 -48 111 -56 49 -9 118
4 164 33 31 19 32 21 17 39 -36 38 -142 59 -207 39z"/>
<path d="M1944 1880 c-29 -6 -104 -47 -104 -55 0 -11 75 -47 114 -54 l46 -8 0
63 c0 68 0 68 -56 54z"/>
<path d="M151 1780 c-36 -59 -45 -108 -32 -170 11 -54 37 -102 56 -104 6 -1
20 19 33 44 37 74 28 181 -21 245 -14 19 -15 18 -36 -15z"/>
<path d="M1808 1787 c-52 -84 -51 -209 4 -274 30 -36 86 92 74 169 -7 41 -39
112 -55 122 -5 3 -15 -4 -23 -17z"/>
<path d="M85 1764 c-16 -7 -42 -13 -57 -14 l-28 0 0 -95 c0 -92 1 -95 23 -95
12 -1 39 -7 60 -15 35 -12 38 -12 32 3 -23 61 -27 109 -12 167 8 33 15 60 14
61 -1 1 -15 -5 -32 -12z"/>
<path d="M1885 1762 c27 -72 27 -142 -1 -215 -5 -13 -1 -14 33 -2 21 8 48 14
61 15 21 0 22 3 22 95 0 95 0 95 -25 95 -14 0 -42 7 -61 15 -34 14 -36 14 -29
-3z"/>
<path d="M0 1480 l0 -63 36 6 c47 8 109 40 109 57 0 17 -62 49 -109 57 l-36 6
0 -63z"/>
<path d="M1925 1529 c-16 -5 -41 -18 -55 -29 l-25 -20 24 -19 c25 -19 85 -41
115 -41 13 0 16 11 16 60 0 56 -2 60 -22 59 -13 0 -36 -5 -53 -10z"/>
<path d="M0 520 c0 -59 0 -60 28 -60 37 0 117 41 117 60 0 19 -80 60 -117 60
-28 0 -28 -1 -28 -60z"/>
<path d="M1900 558 c-25 -13 -45 -30 -45 -38 0 -19 80 -60 117 -60 28 0 28 1
28 60 0 59 0 60 -28 60 -15 0 -48 -10 -72 -22z"/>
<path d="M142 461 c-44 -77 -38 -183 13 -247 l23 -28 20 34 c44 72 47 171 6
241 -27 45 -37 45 -62 0z"/>
<path d="M1813 488 c-57 -72 -61 -185 -11 -266 19 -31 21 -32 39 -16 52 47 61
177 18 254 -24 43 -31 47 -46 28z"/>
<path d="M57 451 l-57 -15 0 -93 c0 -93 0 -93 25 -93 14 0 42 -7 62 -15 19 -8
37 -15 39 -15 2 0 -4 16 -12 37 -18 42 -20 136 -4 177 6 16 9 29 8 30 -2 1
-29 -5 -61 -13z"/>
<path d="M1880 464 c0 -1 5 -15 11 -30 15 -41 13 -136 -5 -177 -8 -21 -14 -37
-12 -37 2 0 20 7 39 15 20 8 48 15 62 15 25 0 25 0 25 93 l0 92 -60 16 c-33 9
-60 14 -60 13z"/>
<path d="M0 173 l0 -65 37 7 c40 7 108 39 117 54 9 14 -56 50 -108 60 l-46 8
0 -64z"/>
<path d="M1609 231 c-40 -8 -100 -40 -106 -57 -6 -17 72 -54 125 -61 54 -6
111 8 155 39 33 23 28 35 -27 58 -52 23 -101 29 -147 21z"/>
<path d="M1955 231 c-47 -12 -116 -51 -110 -62 10 -15 78 -47 118 -54 l37 -7
0 66 c0 36 -3 66 -7 65 -5 -1 -21 -4 -38 -8z"/>
<path d="M240 207 c-23 -12 -43 -27 -43 -32 -1 -16 74 -54 120 -61 79 -12 207
44 170 74 -56 47 -178 56 -247 19z"/>
<path d="M152 128 c-18 -29 -42 -99 -42 -120 0 -5 29 -8 65 -8 l65 0 -7 33
c-6 31 -49 127 -57 127 -3 0 -13 -15 -24 -32z"/>
<path d="M1801 126 c-12 -18 -25 -54 -30 -80 l-8 -46 64 0 65 0 -7 37 c-7 40
-39 108 -54 117 -5 4 -19 -9 -30 -28z"/>
<path d="M498 128 c-18 -29 -38 -85 -38 -109 0 -16 8 -19 61 -19 l62 0 -6 36
c-7 41 -38 106 -54 111 -6 2 -17 -7 -25 -19z"/>
<path d="M1462 137 c-19 -22 -42 -84 -42 -112 0 -24 2 -25 60 -25 59 0 60 0
60 28 0 31 -39 114 -56 119 -6 2 -16 -2 -22 -10z"/>
<path d="M1758 119 c-46 -26 -148 -28 -209 -4 -15 5 -15 1 0 -55 l16 -60 92 0
c93 0 93 0 93 25 0 14 7 42 15 62 17 41 16 45 -7 32z"/>
<path d="M65 108 c-22 -6 -46 -12 -53 -14 -7 -2 -12 -21 -12 -49 l0 -45 44 0
c44 0 44 0 54 43 5 23 13 50 17 60 8 19 7 19 -50 5z"/>
<path d="M235 86 c8 -19 15 -47 15 -61 0 -25 0 -25 95 -25 92 0 95 1 95 23 1
12 7 39 15 60 12 34 11 38 -2 33 -73 -28 -143 -28 -215 -1 -17 7 -17 5 -3 -29z"/>
<path d="M1886 98 c4 -12 10 -39 13 -58 6 -34 8 -35 54 -38 l48 -3 -3 48 c-3
46 -4 48 -38 54 -19 3 -46 9 -58 13 -22 7 -23 6 -16 -16z"/>
</g>
</svg>
